<?xml version="1.0" encoding="UTF-8" standalone="no"?>
<!DOCTYPE svg PUBLIC "-//W3C//DTD SVG 1.1//EN"
 "http://www.w3.org/Graphics/SVG/1.1/DTD/svg11.dtd">
<!-- Generated by graphviz version 2.28.0 (20121020.2216)
 -->
<!-- Title: G Pages: 1 -->
<svg width="648pt" height="138pt"
 viewBox="0.00 0.00 648.00 137.56" xmlns="http://www.w3.org/2000/svg" xmlns:xlink="http://www.w3.org/1999/xlink">
<g id="graph1" class="graph" transform="scale(0.614111 0.614111) rotate(0) translate(4 220)">
<title>G</title>
<polygon fill="white" stroke="white" points="-4,5 -4,-220 1052.18,-220 1052.18,5 -4,5"/>
<!-- last_replaced -->
<g id="node1" class="node"><title>last_replaced</title>
<polygon fill="none" stroke="black" points="611.267,-216 516.733,-216 516.733,-180 611.267,-180 611.267,-216"/>
<text text-anchor="middle" x="564" y="-192.4" font-family="Times,serif" font-size="14.00">Last Replaced</text>
</g>
<!-- type_lt_10 -->
<g id="node2" class="node"><title>type_lt_10</title>
<polygon fill="none" stroke="black" points="336,-126 282,-126 282,-90 336,-90 336,-126"/>
<text text-anchor="middle" x="309" y="-102.4" font-family="Times,serif" font-size="14.00">Type</text>
</g>
<!-- last_replaced&#45;&gt;type_lt_10 -->
<g id="edge18" class="edge"><title>last_replaced&#45;&gt;type_lt_10</title>
<path fill="none" stroke="black" d="M516.634,-180.654C467.223,-163.603 390.811,-137.233 345.763,-121.687"/>
<polygon fill="black" stroke="black" points="346.7,-118.308 336.105,-118.354 344.417,-124.925 346.7,-118.308"/>
<text text-anchor="middle" x="494.86" y="-147.4" font-family="Times,serif" font-size="14.00">&lt; 10 yrs ago</text>
</g>
<!-- type_gt_10 -->
<g id="node3" class="node"><title>type_gt_10</title>
<polygon fill="none" stroke="black" points="763,-126 709,-126 709,-90 763,-90 763,-126"/>
<text text-anchor="middle" x="736" y="-102.4" font-family="Times,serif" font-size="14.00">Type</text>
</g>
<!-- last_replaced&#45;&gt;type_gt_10 -->
<g id="edge20" class="edge"><title>last_replaced&#45;&gt;type_gt_10</title>
<path fill="none" stroke="black" d="M597.572,-179.824C626.986,-164.774 669.633,-142.955 699.803,-127.519"/>
<polygon fill="black" stroke="black" points="701.429,-130.619 708.737,-122.948 698.241,-124.387 701.429,-130.619"/>
<text text-anchor="middle" x="704.808" y="-147.4" font-family="Times,serif" font-size="14.00">&gt;= 10 yrs ago</text>
</g>
<!-- pbf_lt -->
<g id="node4" class="node"><title>pbf_lt</title>
<polygon fill="none" stroke="black" points="116.016,-36 -0.0157724,-36 -0.0157724,-0 116.016,-0 116.016,-36"/>
<text text-anchor="middle" x="58" y="-12.4" font-family="Times,serif" font-size="14.00">not recommended</text>
</g>
<!-- type_lt_10&#45;&gt;pbf_lt -->
<g id="edge2" class="edge"><title>type_lt_10&#45;&gt;pbf_lt</title>
<path fill="none" stroke="black" d="M281.967,-105.569C230.282,-102.375 119.827,-93.2144 88.8584,-72 79.406,-65.5248 72.4477,-55.1286 67.5569,-45.2518"/>
<polygon fill="black" stroke="black" points="70.7444,-43.8057 63.4874,-36.0864 64.3467,-46.6464 70.7444,-43.8057"/>
<text text-anchor="middle" x="149.071" y="-57.4" font-family="Times,serif" font-size="14.00">Pin&#45;based fluorescent</text>
</g>
<!-- sicfl_lt -->
<g id="node8" class="node"><title>sicfl_lt</title>
<polygon fill="none" stroke="black" points="245.472,-36 150.528,-36 150.528,-0 245.472,-0 245.472,-36"/>
<text text-anchor="middle" x="198" y="-12.4" font-family="Times,serif" font-size="14.00">recommended</text>
</g>
<!-- type_lt_10&#45;&gt;sicfl_lt -->
<g id="edge6" class="edge"><title>type_lt_10&#45;&gt;sicfl_lt</title>
<path fill="none" stroke="black" d="M281.834,-100.569C264.306,-95.2895 241.94,-86.3057 226.286,-72 218.401,-64.7936 212.297,-54.8699 207.812,-45.5568"/>
<polygon fill="black" stroke="black" points="210.936,-43.9664 203.717,-36.212 204.525,-46.776 210.936,-43.9664"/>
<text text-anchor="middle" x="266.857" y="-57.4" font-family="Times,serif" font-size="14.00">Screw&#45;in CFL</text>
</g>
<!-- sii_lt -->
<g id="node12" class="node"><title>sii_lt</title>
<polygon fill="none" stroke="black" points="358.472,-36 263.528,-36 263.528,-0 358.472,-0 358.472,-36"/>
<text text-anchor="middle" x="311" y="-12.4" font-family="Times,serif" font-size="14.00">recommended</text>
</g>
<!-- type_lt_10&#45;&gt;sii_lt -->
<g id="edge10" class="edge"><title>type_lt_10&#45;&gt;sii_lt</title>
<path fill="none" stroke="black" d="M309.104,-89.8121C309.195,-79.4393 309.362,-65.9589 309.665,-54 309.73,-51.4469 309.809,-48.7894 309.897,-46.1306"/>
<polygon fill="black" stroke="black" points="313.396,-46.2073 310.261,-36.0871 306.401,-45.9537 313.396,-46.2073"/>
<text text-anchor="middle" x="373.167" y="-57.4" font-family="Times,serif" font-size="14.00">Screw&#45;in incandescent</text>
</g>
<!-- idk_lt -->
<g id="node16" class="node"><title>idk_lt</title>
<polygon fill="none" stroke="black" points="516.016,-36 399.984,-36 399.984,-0 516.016,-0 516.016,-36"/>
<text text-anchor="middle" x="458" y="-12.4" font-family="Times,serif" font-size="14.00">not recommended</text>
</g>
<!-- type_lt_10&#45;&gt;idk_lt -->
<g id="edge14" class="edge"><title>type_lt_10&#45;&gt;idk_lt</title>
<path fill="none" stroke="black" d="M336.038,-106.266C364.206,-104.113 408.05,-96.6689 436,-72 443.679,-65.222 448.739,-55.3398 452.044,-45.9399"/>
<polygon fill="black" stroke="black" points="455.475,-46.6826 454.984,-36.0992 448.768,-44.6793 455.475,-46.6826"/>
<text text-anchor="middle" x="484.092" y="-57.4" font-family="Times,serif" font-size="14.00">I don&#39;t know</text>
</g>
<!-- pbf_gt -->
<g id="node5" class="node"><title>pbf_gt</title>
<polygon fill="none" stroke="black" points="651.016,-36 534.984,-36 534.984,-0 651.016,-0 651.016,-36"/>
<text text-anchor="middle" x="593" y="-12.4" font-family="Times,serif" font-size="14.00">not recommended</text>
</g>
<!-- type_gt_10&#45;&gt;pbf_gt -->
<g id="edge4" class="edge"><title>type_gt_10&#45;&gt;pbf_gt</title>
<path fill="none" stroke="black" d="M708.755,-106.503C680.705,-104.536 637.449,-97.2357 610.858,-72 603.617,-65.128 599.312,-55.2273 596.752,-45.839"/>
<polygon fill="black" stroke="black" points="600.161,-45.041 594.604,-36.0204 593.323,-46.5375 600.161,-45.041"/>
<text text-anchor="middle" x="671.071" y="-57.4" font-family="Times,serif" font-size="14.00">Pin&#45;based fluorescent</text>
</g>
<!-- sicfl_gt -->
<g id="node9" class="node"><title>sicfl_gt</title>
<polygon fill="none" stroke="black" points="780.472,-36 685.528,-36 685.528,-0 780.472,-0 780.472,-36"/>
<text text-anchor="middle" x="733" y="-12.4" font-family="Times,serif" font-size="14.00">recommended</text>
</g>
<!-- type_gt_10&#45;&gt;sicfl_gt -->
<g id="edge8" class="edge"><title>type_gt_10&#45;&gt;sicfl_gt</title>
<path fill="none" stroke="black" d="M735.407,-89.614C734.985,-77.2403 734.41,-60.3686 733.928,-46.2198"/>
<polygon fill="black" stroke="black" points="737.42,-45.9253 733.581,-36.0504 730.424,-46.1639 737.42,-45.9253"/>
<text text-anchor="middle" x="774.857" y="-57.4" font-family="Times,serif" font-size="14.00">Screw&#45;in CFL</text>
</g>
<!-- sii_gt -->
<g id="node13" class="node"><title>sii_gt</title>
<polygon fill="none" stroke="black" points="893.472,-36 798.528,-36 798.528,-0 893.472,-0 893.472,-36"/>
<text text-anchor="middle" x="846" y="-12.4" font-family="Times,serif" font-size="14.00">recommended</text>
</g>
<!-- type_gt_10&#45;&gt;sii_gt -->
<g id="edge12" class="edge"><title>type_gt_10&#45;&gt;sii_gt</title>
<path fill="none" stroke="black" d="M763.337,-100.42C780.664,-95.1123 802.627,-86.1531 818,-72 825.842,-64.7809 831.89,-54.8547 836.326,-45.5431"/>
<polygon fill="black" stroke="black" points="839.609,-46.7685 840.372,-36.2011 833.186,-43.9866 839.609,-46.7685"/>
<text text-anchor="middle" x="895.167" y="-57.4" font-family="Times,serif" font-size="14.00">Screw&#45;in incandescent</text>
</g>
<!-- idk_gt -->
<g id="node17" class="node"><title>idk_gt</title>
<polygon fill="none" stroke="black" points="1037.47,-36 942.528,-36 942.528,-0 1037.47,-0 1037.47,-36"/>
<text text-anchor="middle" x="990" y="-12.4" font-family="Times,serif" font-size="14.00">recommended</text>
</g>
<!-- type_gt_10&#45;&gt;idk_gt -->
<g id="edge16" class="edge"><title>type_gt_10&#45;&gt;idk_gt</title>
<path fill="none" stroke="black" d="M763.011,-105.812C815.848,-103.015 930.476,-94.4676 962,-72 971.025,-65.5676 977.387,-55.3145 981.74,-45.5329"/>
<polygon fill="black" stroke="black" points="985.059,-46.6551 985.447,-36.0674 978.541,-44.1025 985.059,-46.6551"/>
<text text-anchor="middle" x="1012.09" y="-57.4" font-family="Times,serif" font-size="14.00">I don&#39;t know</text>
</g>
</g>
</svg>
