<?xml version="1.0" encoding="UTF-8" standalone="no"?>
<!DOCTYPE svg PUBLIC "-//W3C//DTD SVG 1.1//EN"
 "http://www.w3.org/Graphics/SVG/1.1/DTD/svg11.dtd">
<!-- Generated by graphviz version 2.28.0 (20121020.2216)
 -->
<!-- Title: G Pages: 1 -->
<svg width="619pt" height="224pt"
 viewBox="0.00 0.00 618.83 224.00" xmlns="http://www.w3.org/2000/svg" xmlns:xlink="http://www.w3.org/1999/xlink">
<g id="graph1" class="graph" transform="scale(1 1) rotate(0) translate(4 220)">
<title>G</title>
<polygon fill="white" stroke="white" points="-4,5 -4,-220 615.835,-220 615.835,5 -4,5"/>
<!-- n1515558649656612022 -->
<g id="node1" class="node"><title>n1515558649656612022</title>
<polygon fill="none" stroke="black" points="341,-216 287,-216 287,-180 341,-180 341,-216"/>
<text text-anchor="middle" x="314" y="-192.4" font-family="Times,serif" font-size="14.00">type</text>
</g>
<!-- n751501347705016617 -->
<g id="node2" class="node"><title>n751501347705016617</title>
<polygon fill="none" stroke="black" points="164.387,-126 75.6126,-126 75.6126,-90 164.387,-90 164.387,-126"/>
<text text-anchor="middle" x="120" y="-102.4" font-family="Times,serif" font-size="14.00">last_replaced</text>
</g>
<!-- n1515558649656612022&#45;&gt;n751501347705016617 -->
<g id="edge2" class="edge"><title>n1515558649656612022&#45;&gt;n751501347705016617</title>
<path fill="none" stroke="black" d="M286.789,-196.2C254.498,-194.089 200.146,-186.779 161.257,-162 150.532,-155.167 141.458,-144.537 134.574,-134.586"/>
<polygon fill="black" stroke="black" points="137.473,-132.623 129.102,-126.128 131.596,-136.425 137.473,-132.623"/>
<text text-anchor="middle" x="197.872" y="-147.4" font-family="Times,serif" font-size="14.00">Don&#39;t Know </text>
</g>
<!-- n1318105553519292514 -->
<g id="node3" class="node"><title>n1318105553519292514</title>
<polygon fill="none" stroke="black" points="299.016,-126 182.984,-126 182.984,-90 299.016,-90 299.016,-126"/>
<text text-anchor="middle" x="241" y="-102.4" font-family="Times,serif" font-size="14.00">not recommended</text>
</g>
<!-- n1515558649656612022&#45;&gt;n1318105553519292514 -->
<g id="edge4" class="edge"><title>n1515558649656612022&#45;&gt;n1318105553519292514</title>
<path fill="none" stroke="black" d="M286.809,-191.141C270.973,-186.199 252.234,-177.374 242.358,-162 237.549,-154.512 236.178,-145.12 236.335,-136.331"/>
<polygon fill="black" stroke="black" points="239.847,-136.324 237.156,-126.076 232.869,-135.765 239.847,-136.324"/>
<text text-anchor="middle" x="304.821" y="-147.4" font-family="Times,serif" font-size="14.00">Pin&#45;based flourescent </text>
</g>
<!-- n170333938526067219 -->
<g id="node4" class="node"><title>n170333938526067219</title>
<polygon fill="none" stroke="black" points="435.472,-126 340.528,-126 340.528,-90 435.472,-90 435.472,-126"/>
<text text-anchor="middle" x="388" y="-102.4" font-family="Times,serif" font-size="14.00">recommended</text>
</g>
<!-- n1515558649656612022&#45;&gt;n170333938526067219 -->
<g id="edge6" class="edge"><title>n1515558649656612022&#45;&gt;n170333938526067219</title>
<path fill="none" stroke="black" d="M341.254,-182.891C350.042,-177.316 359.245,-170.253 366,-162 372.235,-154.382 376.935,-144.749 380.355,-135.791"/>
<polygon fill="black" stroke="black" points="383.743,-136.702 383.687,-126.107 377.124,-134.425 383.743,-136.702"/>
<text text-anchor="middle" x="418.351" y="-147.4" font-family="Times,serif" font-size="14.00">Screw&#45;in CFL </text>
</g>
<!-- n247415018182556137 -->
<g id="node5" class="node"><title>n247415018182556137</title>
<polygon fill="none" stroke="black" points="548.472,-126 453.528,-126 453.528,-90 548.472,-90 548.472,-126"/>
<text text-anchor="middle" x="501" y="-102.4" font-family="Times,serif" font-size="14.00">recommended</text>
</g>
<!-- n1515558649656612022&#45;&gt;n247415018182556137 -->
<g id="edge8" class="edge"><title>n1515558649656612022&#45;&gt;n247415018182556137</title>
<path fill="none" stroke="black" d="M341.28,-196.256C373.011,-194.185 425.789,-186.901 463,-162 473.158,-155.203 481.506,-144.713 487.765,-134.855"/>
<polygon fill="black" stroke="black" points="490.86,-136.495 492.917,-126.102 484.828,-132.944 490.86,-136.495"/>
<text text-anchor="middle" x="545.917" y="-147.4" font-family="Times,serif" font-size="14.00">Screw&#45;in incandescent </text>
</g>
<!-- n3848086672704572514 -->
<g id="node6" class="node"><title>n3848086672704572514</title>
<polygon fill="none" stroke="black" points="116.016,-36 -0.0157724,-36 -0.0157724,-0 116.016,-0 116.016,-36"/>
<text text-anchor="middle" x="58" y="-12.4" font-family="Times,serif" font-size="14.00">not recommended</text>
</g>
<!-- n751501347705016617&#45;&gt;n3848086672704572514 -->
<g id="edge10" class="edge"><title>n751501347705016617&#45;&gt;n3848086672704572514</title>
<path fill="none" stroke="black" d="M102.146,-89.9885C96.8756,-84.509 91.311,-78.2351 86.7803,-72 80.8138,-63.789 75.2392,-54.197 70.6152,-45.4472"/>
<polygon fill="black" stroke="black" points="73.6572,-43.708 65.9973,-36.3885 67.4208,-46.8872 73.6572,-43.708"/>
<text text-anchor="middle" x="123.61" y="-57.4" font-family="Times,serif" font-size="14.00">&lt; 10 yrs ago </text>
</g>
<!-- n140146960561605836 -->
<g id="node7" class="node"><title>n140146960561605836</title>
<polygon fill="none" stroke="black" points="229.472,-36 134.528,-36 134.528,-0 229.472,-0 229.472,-36"/>
<text text-anchor="middle" x="182" y="-12.4" font-family="Times,serif" font-size="14.00">recommended</text>
</g>
<!-- n751501347705016617&#45;&gt;n140146960561605836 -->
<g id="edge12" class="edge"><title>n751501347705016617&#45;&gt;n140146960561605836</title>
<path fill="none" stroke="black" d="M143.367,-89.7237C149.339,-84.5112 155.372,-78.4462 160,-72 165.657,-64.121 170.193,-54.5693 173.643,-45.7567"/>
<polygon fill="black" stroke="black" points="176.972,-46.8439 177.078,-36.2496 170.388,-44.4652 176.972,-46.8439"/>
<text text-anchor="middle" x="211.558" y="-57.4" font-family="Times,serif" font-size="14.00">&gt;= 10 yrs ago </text>
</g>
</g>
</svg>
